#define favicon_width 16
#define favicon_height 16
static unsigned char favicon_bits[] = {
   0xf8, 0x0f, 0x08, 0x08, 0xe8, 0x0b, 0x28, 0x0a, 0x28, 0x0a, 0x28, 0x0a,
   0x38, 0x0e, 0xfc, 0x1f, 0x04, 0x10, 0xf4, 0x17, 0x14, 0x14, 0x14, 0x14,
   0x14, 0x14, 0xf4, 0x17, 0x04, 0x10, 0xfc, 0x1f};
